<svg xmlns="http://www.w3.org/2000/svg" viewBox="0 0 32 32">
  <!-- ears -->
  <polygon points="4.2,13.8 8.4,1.8 13.3,11.4" fill="#3f454d"/>
  <polygon points="6.3,11.4 8.6,5 11.2,10.5" fill="#2f343b"/>
  <polygon points="18.7,11.4 23.6,1.8 27.8,13.8" fill="#3f454d"/>
  <polygon points="20.8,10.5 23.4,5 25.7,11.4" fill="#2f343b"/>

  <!-- head -->
  <ellipse cx="16" cy="17" rx="11.7" ry="10.8" fill="#4a5159"/>

  <!-- white blaze + muzzle -->
  <path d="M14.8,7.2 C16.4,6.7 17.9,7.8 17.9,9.5 C17.9,11.2 17.6,12.5 18.1,14 C18.6,15.5 18.6,17.6 17.8,19.2 C17.1,20.6 14.9,20.6 14.2,19.2 C13.4,17.6 13.4,15.5 13.9,14 C14.4,12.5 14.1,11.2 14.1,9.5 C14.1,8.3 14.3,7.6 14.8,7.2 Z" fill="#f6f4ef"/>
  <ellipse cx="16" cy="20" rx="6.3" ry="4.7" fill="#f9f7f2"/>

  <!-- eyes -->
  <ellipse cx="12" cy="15.6" rx="2.5" ry="1.9" fill="#b6c979"/>
  <ellipse cx="20" cy="15.6" rx="2.5" ry="1.9" fill="#b6c979"/>
  <ellipse cx="12.5" cy="15.7" rx="0.55" ry="1.35" fill="#151617"/>
  <ellipse cx="19.5" cy="15.7" rx="0.55" ry="1.35" fill="#151617"/>

  <!-- nose and mouth -->
  <path d="M14.6,19.1 C15.2,18.35 16.8,18.35 17.4,19.1 C17.4,19.9 16.9,20.35 16,20.35 C15.1,20.35 14.6,19.9 14.6,19.1 Z" fill="#d79a93"/>
  <path d="M16,20.35 L16,21.4" stroke="#7a6a66" stroke-width="0.42" stroke-linecap="round"/>
  <path d="M16,21.4 C14.95,22.2 13.6,22.3 12.3,21.9" stroke="#7a6a66" stroke-width="0.42" fill="none" stroke-linecap="round"/>
  <path d="M16,21.4 C17.05,22.2 18.4,22.3 19.7,21.9" stroke="#7a6a66" stroke-width="0.42" fill="none" stroke-linecap="round"/>

  <!-- whiskers -->
  <g stroke="#ececec" stroke-width="0.38" stroke-linecap="round" opacity="0.95">
    <line x1="10" y1="19.2" x2="3.1" y2="18.3"/>
    <line x1="10" y1="20.2" x2="2.8" y2="20.8"/>
    <line x1="22" y1="19.2" x2="28.9" y2="18.3"/>
    <line x1="22" y1="20.2" x2="29.2" y2="20.8"/>
  </g>
</svg>
